<?xml version="1.0" standalone="no"?>
<!DOCTYPE svg PUBLIC "-//W3C//DTD SVG 20010904//EN"
 "http://www.w3.org/TR/2001/REC-SVG-20010904/DTD/svg10.dtd">
<svg version="1.0" xmlns="http://www.w3.org/2000/svg"
 width="500.000000pt" height="500.000000pt" viewBox="0 0 500.000000 500.000000"
 preserveAspectRatio="xMidYMid meet">
<metadata>
Created by potrace 1.11, written by Peter Selinger 2001-2013
</metadata>
<g transform="translate(0.000000,500.000000) scale(0.100000,-0.100000)"
fill="#000000" stroke="none">
<path d="M0 2500 l0 -2500 2500 0 2500 0 0 2500 0 2500 -2500 0 -2500 0 0
-2500z m2050 850 l0 -180 -310 0 -310 0 0 -840 0 -840 -215 0 -215 0 0 840 0
840 -310 0 -310 0 0 180 0 180 835 0 835 0 0 -180z m909 -67 c56 -137 182
-444 280 -683 105 -258 184 -436 192 -438 10 -1 95 196 288 670 151 370 279
679 284 686 8 9 69 12 271 10 l261 -3 3 -1017 2 -1018 -210 0 -210 0 0 661 c0
519 -3 660 -12 657 -7 -3 -130 -298 -273 -656 l-260 -652 -145 2 -145 3 -256
645 c-141 354 -262 651 -267 660 -8 10 -11 -186 -11 -652 l-1 -668 -210 0
-210 0 0 1020 0 1020 264 0 263 0 102 -247z"/>
</g>
</svg>
